<svg xmlns="http://www.w3.org/2000/svg" viewBox="0 0 468 50">
  <g fill="#a4cc39">
    <path d="M256.14 15.22c3.55-2.1 7.56-3.28 11.26-5.11.3.69.91 2.09 1.21 2.79-3.27 1.32-6.52 2.7-9.76 4.12 2.49 2.57 5.54 5.14 6.08 8.89.55 2.82-.98 6.19-3.95 6.82-3.53.51-7.29.66-10.64-.77-3.21 1.22-6.83 1.55-9.99-.01-3.36 1.3-7.2 1.58-10.46-.17-3.66 1.78-7.96 1.63-11.26-.84.45-.91.91-1.81 1.37-2.71 2.62 1.86 5.79 2.51 8.71.85-1.41-3.73-2.98-7.39-4.55-11.06.91-.36 1.82-.72 2.73-1.09 1.98 4.45 3.51 9.1 5.94 13.33 1.83-.24 3.88.05 5.48-1.05 1.54-1.64.45-4.03.44-5.99.69-.13 2.05-.38 2.74-.51.3 2.55.64 5.09 1.33 7.57 1.83-.23 3.89.04 5.5-1.08 1.52-1.64.45-4.02.43-5.98.68-.13 2.05-.38 2.74-.51.3 2.49.62 4.97 1.28 7.39 2.77-.17 5.96.76 8.42-.93 1.32-.87 1.2-2.72.7-4.02-1.47-2.96-4.1-5.11-6.57-7.21.2-.68.61-2.04.82-2.72zM396.39 15.31c3.91-1.86 7.93-3.47 11.88-5.21.25.7.74 2.11.98 2.81-3.23 1.36-6.46 2.73-9.7 4.08 2.34 2.4 5.07 4.76 5.99 8.12 1.16 3.18-.94 7.46-4.49 7.76-3.42.33-6.95.38-10.23-.79-2.83.85-5.78 1.01-8.72.99-1.56 5.41-6.42 8.74-11.67 10.01-.25-.72-.76-2.15-1.02-2.86 4.07-1.06 8.06-3.1 10.01-7.02-2-.22-4.06-.14-5.99-.71-1.83-.74-2.32-2.79-3.12-4.37.87-2.83 1.92-7.23 5.73-6.97 4.31.48 5.56 5.5 6.23 9.07 2.06-.18 4.34.27 6.23-.79 1.94-1.54.73-4.15.8-6.22l2.64-.52c.43 2.37.62 4.79 1.32 7.1 2.81.41 6.2 1.07 8.68-.69 1.58-.97 1.25-3.09.44-4.47-1.52-2.56-3.77-4.56-6.01-6.47 0-.95.01-1.9.02-2.85m-23.01 14.08c2.01.47 4.05.76 6.11.97-.65-2.59-1.71-5.07-3.59-7.01-1.63 1.63-2.31 3.8-2.52 6.04zM20.82 13.12c.76-.58 1.5-1.18 2.29-1.7.81.5 1.56 1.09 2.34 1.65-.58.57-1.74 1.72-2.32 2.29-.57-.56-1.73-1.68-2.31-2.24zM156.26 11.27c.74-.06 2.22-.18 2.95-.24.88 7.24.6 14.54.6 21.82-.75.06-2.27.17-3.03.23.69-7.27.14-14.56-.52-21.81zM188.25 11.28c.74-.06 2.22-.19 2.96-.25.87 7.25.62 14.57.58 21.85-.75.05-2.25.14-3 .18.68-7.26.13-14.54-.54-21.78zM3.12 12.23c.7-.06 2.09-.17 2.78-.23.87 5.76.19 11.6.63 17.38 1.28.74 2.82.65 4.24.86 1.68-2.18 2.94-4.64 3.7-7.28.61.13 1.82.38 2.43.51-.17 2.38-.25 4.77-.16 7.16 3.87-.57 4.45-4.61 5.09-7.74.68.08 2.04.25 2.71.33-.01 2.28-.59 4.71.42 6.86 3.96.83 3.13-4.56 3.27-7.02.65-.14 1.95-.42 2.6-.55.53 2 .79 4.12 1.77 5.98 1.27 2.54 4.94 1.86 7.14 1.19 2.7-2.3-.02-5.78-.7-8.44.89-.44 1.78-.87 2.67-1.31 1.16 3.39 3.37 7.5 1.08 10.89-1.69 2.58-5.21 2.2-7.89 2.19-1.8.18-3.14-1.12-4.5-2.07-2.36 2.49-5.98 2.65-8.46.26-2.39 2.23-5.93 2.41-8.2-.1-2.33 2.11-6.04 2.74-8.68.86-1.59-1.07-1.69-3.19-1.71-4.92-.02-4.94.11-9.88-.23-14.81zM310.33 12.21l3.08-.12c.21 5.94 1.11 11.98.2 17.88-1.51 4.04-6.87 3.41-10.08 2.02-3.95 1.3-8.49 1.71-12.31-.23-3.67 1.76-8.05 1.73-11.32-.87.41-.87.83-1.74 1.25-2.62 2.71 1.78 5.86 2.5 8.8.76-1.42-3.7-2.98-7.35-4.52-11 .69-.28 2.07-.84 2.76-1.11 1.84 4.42 3.47 8.96 5.75 13.19 2.68-.11 5.78.66 8.05-1.2.6-1.84.18-3.81.17-5.71.63-.13 1.9-.38 2.53-.51.36 2.49.77 4.98 1.27 7.46 1.67-.28 4 .59 4.99-1.26.55-5.55-.13-11.15-.62-16.68zM36.79 15.3c.76-.83 1.53-1.65 2.29-2.47l2.49 2.46-2.43 2.34c-.78-.78-1.57-1.55-2.35-2.33zM178 15.25c.78-.79 1.57-1.58 2.36-2.37.81.81 1.63 1.61 2.45 2.42-.82.77-1.63 1.55-2.45 2.33-.79-.8-1.58-1.59-2.36-2.38zM330.95 15.27c.8-.79 1.6-1.59 2.42-2.39.79.79 1.58 1.59 2.38 2.38-.78.79-1.56 1.58-2.33 2.37-.83-.79-1.65-1.57-2.47-2.36zM336.65 15.43c.76-.84 1.52-1.67 2.29-2.51.8.81 1.61 1.62 2.42 2.43-.79.81-1.57 1.62-2.35 2.44l-2.36-2.36zM140.96 15.97c2.94-3.31 7.84-1.91 10.87.5-.49.57-1.47 1.69-1.96 2.26-2.34-2.12-7.11-2.92-7.64 1.25.72 4.14 5.97 2.7 8.87 2.28.18.7.52 2.11.7 2.81-4.32.73-9.13 1.09-12.51 4.21-2.73 2.52-2.77 7.88.96 9.5 3.65 2.21 7.93.69 11.38-1.14.51.83 1.01 1.66 1.52 2.49-4.03 2.77-9.43 3.8-13.95 1.6-3.83-1.63-5.83-6.29-4.53-10.22.79-3.29 3.62-5.42 6.36-7.07-1.79-2.51-2.48-6.07-.07-8.47z"/>
    <path d="M17.66 17.32L20 14.98c.79.79 1.57 1.58 2.36 2.38-.81.83-1.61 1.67-2.42 2.5-.76-.85-1.52-1.69-2.28-2.54zM23.7 17.5c.82-.8 1.63-1.6 2.44-2.4.8.81 1.6 1.61 2.4 2.42-.81.79-1.61 1.58-2.42 2.37-.8-.8-1.61-1.59-2.42-2.39zM82.64 15.89c.8.79 1.61 1.59 2.41 2.38-.82.78-1.64 1.56-2.45 2.34-.8-.77-1.6-1.55-2.41-2.32.82-.8 1.63-1.6 2.45-2.4zM238.64 15.89c.81.79 1.61 1.59 2.41 2.38-.82.78-1.64 1.56-2.45 2.35-.81-.78-1.61-1.56-2.41-2.34.82-.79 1.63-1.59 2.45-2.39zM248.64 15.89c.8.79 1.6 1.58 2.41 2.37-.81.79-1.62 1.57-2.43 2.36-.81-.78-1.62-1.55-2.43-2.32.81-.81 1.63-1.61 2.45-2.41zM428.77 15.75c.83.85 1.65 1.7 2.47 2.56-.87.81-1.7 1.62-2.56 2.43-.82-.83-1.62-1.66-2.43-2.48.84-.84 1.67-1.67 2.52-2.51zM205.16 25.07c1.45-2.29 2.7-4.69 3.78-7.17 2.97 3.05 7.01 6.32 6.86 11.01-.69 4.61-7.29 5.37-10.22 2.48-1.85-1.55-1.7-4.46-.42-6.32m1.49 4.08c1.97.64 5.04 2.14 6.24-.44.11-2.21-1.71-3.9-2.8-5.65-1.46 1.84-2.66 3.87-3.44 6.09zM117.05 21.45c.91-.42 1.83-.84 2.75-1.26 1.16 3.56 3.52 8 .87 11.43-2.08 2.53-5.7 1.81-8.02.05-2.52 1.86-5.41 2-7.96.07-2.63 1.68-5.83 1.49-8.6.28-3.79 1.2-8.02 1.59-11.74-.05-2.73 1.01-5.64 1.14-8.52 1.04 1.33 2.48.94 5.72-1.73 7.12-4.42 2.47-10.34 2.68-14.93.63-5.58-3.88-3.01-11.65-1.11-16.91.7.25 2.09.76 2.79 1.01-1.57 4.22-3.17 8.91-1.05 13.26 4.77 1.64 10.94 1.92 14.6-2.15-2.21-1.43-4.66-2.38-7.14-3.21.07-.64.2-1.93.26-2.57 4.46-.17 8.97.3 13.4-.3 3.14-.67 2.05-4.4 1.84-6.63.68-.15 2.03-.44 2.71-.58.31 2.5.65 5.01 1.31 7.45 2.36-.27 5.35.8 7.24-1.08 1.9-1.53.4-4.15.49-6.18.66.02 1.97.06 2.63.09.64 2.36.86 4.82 1.45 7.2.87-.03 2.61-.09 3.47-.11 1.6-2.03 2.61-4.4 3.45-6.82.62.2 1.85.6 2.46.8-.18 2.07-1.8 4.55-.04 6.33 3.76.01 3.98-4.69 4.84-7.38l2.64.42c0 2.33-1.77 6.51 1.7 7.14 3.86-1.77.6-6.2-.06-9.09zM180.26 21.13c.92-.38 1.84-.75 2.76-1.13 1.21 3.43 3.22 7.64.89 11.04-2.02 2.6-5.72 1.8-8.58 1.99-1.47 5.51-6.48 8.83-11.78 10.05-.19-.71-.58-2.14-.77-2.85 3.96-1.16 7.9-3.09 9.85-6.95-2.74-.51-6.57.21-8.1-2.77-1.74-3.61.69-10.05 5.35-9.3 3.92 1 4.86 5.52 5.65 8.91 2.26-.12 5.84.84 6.63-2.11.1-2.43-1.14-4.64-1.9-6.88m-13.37 7.8c1.42 1.69 3.85 1.04 5.76 1.38-.76-2.32-1.1-5.6-3.82-6.46-1.47 1.22-2.33 3.16-1.94 5.08zM335.68 21.3c.88-.45 1.77-.9 2.65-1.34 1.1 3.37 3.27 7.31 1.16 10.71-2.48 3.13-6.9 2.17-10.38 2.37-1.55 5.42-6.42 8.78-11.69 10.04-.25-.72-.74-2.16-.99-2.88 4.07-1.03 8.04-3.09 9.99-7-2.01-.22-4.07-.14-6.01-.72-1.81-.74-2.3-2.79-3.1-4.36.86-2.82 1.91-7.22 5.72-6.97 4.3.47 5.56 5.46 6.23 9.01 2.64-.25 5.89.82 7.97-1.3.62-2.65-.7-5.14-1.55-7.56m-13.58 2.63c-1.14 1.6-1.38 3.58-1.72 5.46 2.01.46 4.04.76 6.1.98-.88-2.36-1.18-6.19-4.38-6.44zM461.29 21.45c.88-.44 1.77-.88 2.67-1.31 1.28 3.29 2.89 6.95 1.64 10.5-.84 1.9-3.07 2.27-4.75 3.03-1.31-.66-2.6-1.34-3.87-2.04-2.49 1.83-5.39 2.04-7.93.21-2.74 1.47-5.93 1.5-8.7.1-2.57 1.03-5.34 1.22-8.06.82-1.24 4.94-5.23 8.37-9.51 10.74-.33-.66-.99-1.97-1.32-2.63 3.12-1.97 6.76-4.13 7.68-7.99.06-2.71-.99-5.27-1.63-7.85.65-.22 1.95-.65 2.6-.87 1.16 2.6 2.22 6.91 6.03 6 3.64-.33 3.14-4.35 2.62-6.93.68-.13 2.04-.39 2.72-.53.31 2.59.66 5.18 1.38 7.69 4.33.39 5.92-3.75 6.85-7.18.62.2 1.87.6 2.49.8-.18 2.25-2.04 5.23.68 6.63 3.12-1.41 3.33-5.11 4.34-7.94 4.15.28 1.26 4.97 2.6 7.52 1.64.62 3.57-.18 3.38-2.16-.18-2.31-1.16-4.45-1.91-6.61zM356.71 26.72c1.37-2.39 2.89-6.03 6.27-5.54 5.25.74 5.99 9.04 1.65 11.46-3.13-.01-5.92-1.73-8.83-2.69.11 4.47.11 8.95.56 13.4-.99.02-1.97.03-2.95.05-.16-4.8-.6-9.61-.3-14.4.15-1.85 2.3-1.74 3.6-2.28m5.37-2.8c-1.11 1.27-1.94 2.75-2.83 4.18 1.7.62 3.4 1.23 5.13 1.81.1-2.06.59-5.71-2.3-5.99zM413.49 22.46c1.73-1.99 5.04-1.6 6.61.39 3.38 4.03 3.73 10.42.49 14.64-2.23 3.14-5.97 4.51-9.51 5.55-.32-.92-.63-1.85-.94-2.77 3.95-1.18 7.95-3.04 9.95-6.89-2.48-.58-5.54-.03-7.49-2-2.27-2.58-1.14-6.56.89-8.92m2.62 1.36c-1.3 1.48-2.13 3.52-1.53 5.48 1.68 1.07 3.76.79 5.65 1-.9-2.35-1.26-5.72-4.12-6.48z"/>
    <path d="M88.11 37.62c.83-.84 1.67-1.67 2.51-2.51.79.79 1.58 1.59 2.37 2.39l-2.49 2.49c-.8-.79-1.6-1.58-2.39-2.37zM96.29 35.19c.77.81 1.55 1.61 2.33 2.42-.78.8-1.57 1.59-2.35 2.4-.8-.79-1.6-1.57-2.39-2.36.8-.82 1.6-1.64 2.41-2.46zM295.36 37.69c1.3-1.11 2.58-2.65 4.52-2.01l-.77 1.46c1.26.01 2.53-.01 3.8-.05l-.84-1.45c1.78-.31 3.04.97 4.35 1.92-1.39 1.16-2.8 2.98-4.73 1.34l1.25-1c-1.29-.03-2.58-.04-3.86-.02l.85 1.32c-1.86.87-3.28-.32-4.57-1.51zM382.88 37.64c.83-.85 1.68-1.69 2.52-2.54.78.81 1.57 1.62 2.36 2.43-.85.82-1.7 1.65-2.53 2.48-.79-.79-1.57-1.58-2.35-2.37zM388.66 37.68c.76-.85 1.52-1.69 2.28-2.54.8.84 1.61 1.67 2.42 2.51-.79.79-1.58 1.58-2.36 2.37l-2.34-2.34zM436.75 38c.79-.8 1.58-1.59 2.38-2.38.8.82 1.62 1.64 2.44 2.45-.83.76-1.66 1.52-2.48 2.28-.79-.78-1.57-1.57-2.34-2.35z"/>
  </g>
</svg>
