<?xml version="1.0" encoding="UTF-8" standalone="no"?>
<!-- Created with Inkscape (http://www.inkscape.org/) -->

<svg
   xmlns:dc="http://purl.org/dc/elements/1.1/"
   xmlns:cc="http://creativecommons.org/ns#"
   xmlns:rdf="http://www.w3.org/1999/02/22-rdf-syntax-ns#"
   xmlns:svg="http://www.w3.org/2000/svg"
   xmlns="http://www.w3.org/2000/svg"
   xmlns:sodipodi="http://sodipodi.sourceforge.net/DTD/sodipodi-0.dtd"
   xmlns:inkscape="http://www.inkscape.org/namespaces/inkscape"
   width="177.73471mm"
   height="33.073711mm"
   viewBox="0 0 177.73471 33.073711"
   version="1.1"
   id="svg8"
   inkscape:version="0.92.3 (2405546, 2018-03-11)"
   sodipodi:docname="drawing.svg">
  <defs
     id="defs2" />
  <sodipodi:namedview
     id="base"
     pagecolor="#ffffff"
     bordercolor="#666666"
     borderopacity="1.0"
     inkscape:pageopacity="0.0"
     inkscape:pageshadow="2"
     inkscape:zoom="0.98994949"
     inkscape:cx="317.96552"
     inkscape:cy="174.93112"
     inkscape:document-units="mm"
     inkscape:current-layer="layer1"
     showgrid="false"
     inkscape:window-width="1366"
     inkscape:window-height="715"
     inkscape:window-x="-8"
     inkscape:window-y="-8"
     inkscape:window-maximized="1" />
  <metadata
     id="metadata5">
    <rdf:RDF>
      <cc:Work
         rdf:about="">
        <dc:format>image/svg+xml</dc:format>
        <dc:type
           rdf:resource="http://purl.org/dc/dcmitype/StillImage" />
        <dc:title></dc:title>
      </cc:Work>
    </rdf:RDF>
  </metadata>
  <g
     inkscape:label="Layer 1"
     inkscape:groupmode="layer"
     id="layer1"
     transform="translate(-11.674315,-114.15362)">
    <g
       id="#604d3eff"
       transform="matrix(0.35277777,0,0,0.35277777,10.605448,114.15362)">
      <path
         id="path3713"
         d="m 216.3,0 h 0.44 c 2.54,2.35 5.1,4.69 7.62,7.07 -4.53,5.35 -10.06,9.85 -13.98,15.71 8.93,-0.32 18.03,3.13 23.78,10.12 8.93,9.88 10.27,23.99 9.93,36.73 -22.35,0.45 -44.71,-0.22 -67.06,0.05 -6,0.3 -12.64,-0.75 -16.46,-5.9 -3.9,3.68 -9.15,5.53 -14.45,5.8 -8.46,0.37 -16.93,0.1 -25.4,0.08 -4.49,11.8 -15.06,21.63 -27.78,23.46 -1.69,0.06 -4.02,1.03 -5.03,-0.89 -1.87,-2.68 -2.99,-5.78 -4.18,-8.8 2.65,-0.21 5.33,-0.22 7.95,-0.72 6.96,-1.77 12.9,-6.68 16.24,-13.02 -6,0.07 -12.55,0.7 -17.77,-2.93 -11.76,-7.78 -13.3,-26.34 -3.82,-36.53 5.76,-6.47 15.45,-8.63 23.6,-5.96 8.04,1.44 12.64,10.09 12.43,17.71 -0.33,5.64 -0.51,11.29 -0.26,16.93 6.98,0.13 13.97,0.11 20.95,0.09 3.45,0.01 7.85,-1.38 8.75,-5.15 0.7,-5.55 -0.37,-11.15 -0.06,-16.72 0.27,-4.37 0.23,-8.76 0.16,-13.14 3.91,0 7.83,-0.01 11.74,0.07 0.26,8.34 -0.2,16.7 0.44,25.03 0.42,4.63 3.75,9.89 8.87,9.89 19.77,0.04 39.54,0.02 59.31,0 -0.52,-4.56 -1.87,-9.01 -3.9,-13.13 -2.55,-5.42 -6.68,-10.77 -12.78,-12.24 -7.47,-1.82 -14.92,1.39 -21.61,4.42 -1.61,-2.91 -3.95,-5.58 -4.68,-8.86 C 197.51,18.76 207.43,9.84 216.3,0 M 95.28,36.43 c -3.92,5.95 -4.21,15.05 1.13,20.27 3.8,3.23 9.06,2.16 13.63,2.3 -0.22,-7.62 1.14,-15.58 -1.21,-22.95 -2.42,-5.61 -10.67,-3.99 -13.55,0.38 z"
         inkscape:connector-curvature="0"
         style="opacity:1;fill:#604d3e" />
      <path
         id="path3715"
         d="m 339.31,5.28 c 3.94,-0.19 7.89,-0.21 11.84,-0.2 0.48,4.22 0.32,8.49 -0.03,12.72 -4.01,0.06 -8.02,0.12 -12.02,0.06 -0.14,-4.19 -0.11,-8.4 0.21,-12.58 z"
         inkscape:connector-curvature="0"
         style="opacity:1;fill:#604d3e" />
      <path
         id="path3717"
         d="m 38.88,23.79 c 8.87,-2.56 20.02,-1.33 26.04,6.39 5.5,6.59 6.16,15.76 4.62,23.88 -1.11,5.34 -4.08,10.83 -9.23,13.18 -2.17,1.2 -4.6,1.7 -6.93,2.49 C 46.6,70.5 39.29,69.4 33.98,64.82 28.35,60.61 26.29,53.4 25.82,46.69 22,46.74 15.47,45.49 15.11,50.98 c -0.42,13.88 -0.05,27.79 0.45,41.66 -0.21,0.25 -0.63,0.74 -0.84,0.99 -3.6,0.24 -7.21,0.04 -10.81,0.11 C 3.54,79.81 3.02,65.87 3.03,51.93 3.07,47.06 4.54,41.71 8.54,38.62 c 5.48,-3.78 12.37,-2.42 18.6,-2.6 2.3,-5.34 6.05,-10.27 11.74,-12.23 m 5.55,8.71 c -3.14,1.13 -4.91,4.3 -5.49,7.43 -1.43,5.92 -0.88,12.96 3.58,17.5 3.47,4.18 11.19,3.64 13.76,-1.25 2.33,-4.3 2.22,-9.44 1.74,-14.16 C 57.34,35.79 50.89,29.57 44.43,32.5 Z"
         inkscape:connector-curvature="0"
         style="opacity:1;fill:#604d3e" />
      <path
         id="path3719"
         d="m 265.29,26.22 c 6.39,-4.35 14.78,-3.42 21.63,-0.73 5.15,2.48 8.41,7.91 9.05,13.49 0.56,4.8 0.19,9.64 0.49,14.45 0.33,6.92 0.08,14.13 -2.93,20.5 -1.84,4.12 -5.37,7.04 -8.19,10.45 -5.47,5.29 -12.68,8.7 -20.28,9.32 -1.18,0.04 -2.81,0.24 -3.24,-1.19 -1.72,-2.89 -2.98,-6.03 -4,-9.22 9.78,1.04 19.12,-4.89 23.64,-13.38 -7.08,0.34 -14.82,-0.04 -20.33,-5.1 -11.1,-10.33 -8.46,-30.62 4.16,-38.59 m 7.94,6.93 c -9.36,5.34 -8.89,23.52 2.72,25.74 2.62,-0.08 5.91,0.99 8.09,-0.8 0.07,-6.71 0.15,-13.46 -0.21,-20.17 -0.52,-5.05 -6.51,-6.8 -10.6,-4.77 z"
         inkscape:connector-curvature="0"
         style="opacity:1;fill:#604d3e" />
      <path
         id="path3721"
         d="m 339.22,24.32 c 2.03,-2.24 5.52,-0.77 8.18,-0.94 1.43,0.36 2.87,0.64 4.32,0.93 -0.6,7.23 0.04,14.48 -0.22,21.72 -0.11,3.67 0.11,7.85 3.19,10.38 4.37,4.21 10.87,2.1 16.28,2.59 4.93,-0.36 10.73,1.33 14.89,-2.13 3.27,-2.68 1.93,-7.29 2.11,-10.95 -0.64,-7.29 -1.1,-14.63 -0.2,-21.92 3.86,0 7.71,0 11.57,-0.02 0.55,8.01 0.02,16.03 0.1,24.04 -0.03,4.68 2.77,9.79 7.55,10.91 9.02,0.21 18.06,-0.01 27.09,0.07 0.27,-10.57 -0.52,-21.21 0.25,-31.74 3.59,-0.39 7.2,-0.16 10.8,-0.08 0.93,8.88 -0.47,17.92 1.11,26.73 1.81,5.7 8.61,6.94 13.81,6.17 2.62,0.04 4.25,-2.68 4.04,-5.07 0.29,-9.24 -0.26,-18.49 0.04,-27.73 3.71,0.13 7.76,-0.82 11.26,0.39 0.6,8.04 -0.28,16.26 0.8,24.31 1.94,6.64 10.15,10.13 16.41,7.55 1.98,-1.04 2.6,-3.43 2.46,-5.51 0,-9.98 -0.17,-19.97 0.01,-29.95 3.84,-0.12 7.68,-0.13 11.52,0.06 0.03,10.67 0.51,21.35 0.07,32.01 -0.27,6.54 -4.82,12.47 -11.12,14.3 -7.87,1.63 -17.14,0.54 -22.52,-6.07 -6.32,7.99 -18.24,7.91 -26.58,3.38 -0.37,0.46 -1.13,1.4 -1.51,1.87 -9.98,0.45 -19.99,-0.05 -29.98,0.19 -3.91,-0.13 -8.05,0.54 -11.71,-1.16 -2.77,-1.19 -4.87,-3.44 -6.96,-5.53 -2.13,2.07 -4.47,3.98 -7.27,5.06 -5.02,2.33 -10.67,1.44 -16.01,1.6 -7.51,-0.24 -15.71,1.22 -22.34,-3.24 -3.27,15.04 -17.37,27.69 -33.11,27.06 -2.07,-3.18 -3.86,-6.61 -4.74,-10.32 3.1,-0.26 6.31,0.07 9.32,-0.91 10.33,-3.12 17.4,-13.76 17.32,-24.4 -0.01,-11.22 -0.47,-22.44 -0.23,-33.65 z"
         inkscape:connector-curvature="0"
         style="opacity:1;fill:#604d3e" />
      <path
         id="path3725"
         d="m 388.13,75.14 c 3.88,-0.05 7.76,-0.05 11.64,0.03 -0.1,4.21 0.56,8.54 -0.66,12.64 -3.67,-0.08 -7.33,0 -10.99,0.03 -0.58,-4.23 -0.29,-8.47 0.01,-12.7 z"
         inkscape:connector-curvature="0"
         style="opacity:1;fill:#604d3e" />
      <path
         id="path3725-1"
         d="m 158.21,75.63 c 3.88,-0.05 7.76,-0.05 11.64,0.03 -0.1,4.21 0.56,8.539999 -0.66,12.64 -3.67,-0.08 -7.33,0 -10.99,0.03 -0.58,-4.230001 -0.29,-8.47 0.01,-12.7 z"
         inkscape:connector-curvature="0"
         style="opacity:1;fill:#604d3e;stroke-width:0.99999994" />
      <path
         id="path3725-1-6"
         d="m 145.93,75.45 c 3.88,-0.05 7.76,-0.05 11.64,0.03 -0.1,4.21 0.56,8.54 -0.66,12.64 -3.67,-0.08 -7.33,0 -10.99,0.03 -0.58,-4.23 -0.29,-8.47 0.01,-12.7 z"
         inkscape:connector-curvature="0"
         style="opacity:1;fill:#604d3e;stroke-width:0.99999994" />
    </g>
  </g>
</svg>
