<?xml version="1.0" standalone="no"?>
<!DOCTYPE svg PUBLIC "-//W3C//DTD SVG 20010904//EN"
 "http://www.w3.org/TR/2001/REC-SVG-20010904/DTD/svg10.dtd">
<svg version="1.0" xmlns="http://www.w3.org/2000/svg"
 width="651.000000pt" height="651.000000pt" viewBox="0 0 651.000000 651.000000"
 preserveAspectRatio="xMidYMid meet">
<metadata>
Created by potrace 1.11, written by Peter Selinger 2001-2013
</metadata>
<g transform="translate(0.000000,651.000000) scale(0.100000,-0.100000)"
fill="#000000" stroke="none">
<path d="M945 6499 c-119 -21 -131 -28 -144 -71 -22 -72 -31 -151 -31 -263 0
-60 2 -120 4 -132 3 -11 8 -43 12 -70 9 -67 10 -68 33 -158 21 -81 86 -277
116 -350 229 -550 739 -1038 1334 -1277 95 -38 318 -106 401 -121 14 -3 81
-16 150 -30 69 -14 146 -28 172 -32 44 -7 46 -9 51 -43 2 -21 5 -221 7 -447 1
-225 4 -459 6 -520 5 -171 6 -628 0 -650 -2 -11 -5 -37 -5 -57 -1 -21 -5 -38
-10 -38 -4 0 -30 28 -57 62 -73 93 -315 334 -424 420 -52 42 -147 111 -210
153 -130 87 -454 252 -545 277 -33 9 -91 26 -130 37 -285 86 -578 112 -772 69
-48 -11 -94 -25 -100 -32 -23 -21 -50 -176 -50 -286 -2 -247 57 -463 207 -762
169 -336 346 -567 615 -805 78 -69 96 -82 240 -181 123 -84 171 -111 305 -178
197 -96 458 -186 615 -211 17 -2 46 -8 65 -13 30 -7 143 -22 177 -23 19 -1 35
-84 48 -242 2 -33 5 -165 6 -292 l2 -233 243 0 244 1 0 212 c1 117 2 648 3
1182 l2 969 210 53 c340 86 661 190 791 256 68 35 224 138 308 205 70 55 329
308 376 368 14 17 61 76 105 130 181 226 277 422 386 795 40 138 42 150 45
299 3 158 -4 238 -31 341 -6 23 -18 30 -88 52 -195 62 -256 64 -472 15 -49
-11 -100 -22 -112 -24 -41 -8 -318 -93 -388 -119 -38 -15 -95 -35 -125 -46
-66 -23 -81 -30 -185 -88 -84 -46 -278 -166 -305 -187 -8 -7 -42 -33 -75 -58
-72 -53 -174 -151 -268 -257 -72 -83 -218 -231 -222 -227 -2 2 -6 82 -10 178
-3 96 -8 193 -10 215 -20 222 -24 257 -49 380 -52 256 -158 517 -289 715 -124
186 -261 334 -542 590 -152 137 -391 279 -595 352 -30 11 -64 23 -75 28 -102
45 -390 125 -562 156 -103 19 -326 26 -398 13z m514 -419 c279 -56 546 -177
781 -354 103 -77 345 -312 430 -416 154 -188 283 -457 314 -655 12 -75 18
-144 18 -195 0 -85 0 -83 -24 -76 -52 16 -221 57 -256 62 -20 3 -65 12 -100
20 -34 7 -77 16 -95 19 -142 24 -415 167 -597 314 -199 160 -334 318 -507 596
-13 20 -107 213 -123 250 -34 83 -77 213 -96 290 -15 64 -25 112 -30 141 l-6
37 97 -7 c54 -4 141 -16 194 -26z m3873 -1640 c-2 -25 -7 -63 -12 -85 -5 -22
-12 -56 -15 -75 -29 -174 -142 -437 -264 -615 -149 -217 -361 -423 -587 -571
-91 -58 -261 -150 -334 -178 -25 -10 -56 -23 -70 -29 -14 -6 -27 -11 -30 -12
-3 0 -48 -15 -100 -33 -99 -33 -184 -52 -310 -72 -41 -6 -86 -13 -99 -16 -23
-5 -24 -4 -18 48 7 57 10 71 30 163 38 168 141 423 234 580 98 163 229 315
393 455 36 30 74 63 85 74 78 73 345 222 535 298 166 67 390 116 515 114 l50
-1 -3 -45z m-4028 -1575 c43 -4 88 -9 100 -11 160 -31 151 -29 237 -54 523
-154 994 -558 1229 -1054 91 -190 150 -392 165 -559 l5 -58 -33 5 c-17 3 -54
8 -80 11 -51 7 -58 8 -147 26 -59 11 -70 14 -200 55 -162 51 -364 146 -509
241 -438 288 -737 690 -857 1153 -18 71 -44 241 -38 251 2 4 14 5 26 4 13 -1
59 -6 102 -10z"/>
</g>
</svg>
