<svg xmlns="http://www.w3.org/2000/svg" xmlns:xlink="http://www.w3.org/1999/xlink" viewBox="0 0 458.823 507"><defs><style>.a{fill:#f98786;}.b{clip-path:url(#a);}.c{fill:#ff5d5d;}.d{fill:#e33147;}.e{fill:#fff;}</style><clipPath id="a"><path class="a" d="M39.819,507H358.371a39.827,39.827,0,0,0,39.819-39.836V141.894a36.2,36.2,0,0,0-10.58-25.574L282.1,10.625A36.2,36.2,0,0,0,256.481,0H39.819A39.827,39.827,0,0,0,0,39.836V467.164A39.827,39.827,0,0,0,39.819,507Z"/></clipPath></defs><g transform="translate(60.633)"><path class="a" d="M39.819,507H358.371a39.827,39.827,0,0,0,39.819-39.836V141.894a36.2,36.2,0,0,0-10.58-25.574L282.1,10.625A36.2,36.2,0,0,0,256.481,0H39.819A39.827,39.827,0,0,0,0,39.836V467.164A39.827,39.827,0,0,0,39.819,507Z"/><g class="b"><path class="c" d="M.744,0H245.625V234.416L0,270.678Z" transform="translate(0.529 153.018)"/></g></g><g transform="translate(0 134)"><path class="d" d="M20.362,0H305.43c11.246,0,20.362,9.458,20.362,21.125v211.25c0,11.667-9.116,21.125-20.362,21.125H20.362C9.116,253.5,0,244.042,0,232.375V21.125C0,9.458,9.116,0,20.362,0Z" transform="translate(0 0.732)"/><path class="e" d="M18.986,144.857h0L0,118.693C21.983,100.48,35.681,84.387,43.108,68.047,49.632,53.7,51.765,41.414,53.485,8.306c.173-3.356.173-3.356.353-6.818L86.712,0c3.03,21.352,6.892,38.032,15.89,50.038C111.039,61.3,123.658,68.187,144.8,73.084l-.84,32.033c-47.314,2.694-74.176,11.236-124.97,39.74Zm59.1-86.479a136.479,136.479,0,0,1-5.7,14.743,139.1,139.1,0,0,1-8.109,13.061l32.085-8-.021-.014a100.215,100.215,0,0,1-11.32-10.173A42.651,42.651,0,0,1,78.086,58.378Z" transform="translate(90.498 55.054)"/></g></svg>